<?xml version="1.0" encoding="utf-8"?>
<!-- Generator: Adobe Illustrator 23.0.1, SVG Export Plug-In . SVG Version: 6.00 Build 0)  -->
<svg version="1.1" id="Calque_1" xmlns="http://www.w3.org/2000/svg" xmlns:xlink="http://www.w3.org/1999/xlink" x="0px" y="0px"
	 viewBox="0 0 432 432" style="enable-background:new 0 0 432 432;" xml:space="preserve">
<style type="text/css">
	.st0{fill:#AB8056;}
	.st1{fill:#1A1A1A;}
	.st2{fill:#736358;}
	.st3{fill:#C48C10;}
	.st4{fill:#544841;}
	.st5{fill:#E884A9;}
	.st6{fill:#B3B3B2;}
	.st7{fill:#C0282E;}
	.st8{fill:#333333;}
	.st9{fill:#19854B;}
	.st10{fill:#EBC776;}
	.st11{fill:#D5A953;}
	.st12{fill:#E1DFDB;}
	.st13{fill:#D2B155;}
	.st14{fill:#E8973E;}
	.st15{fill:#3A6C51;}
	.st16{fill:#036838;}
	.st17{fill:#4E695A;}
	.st18{fill:#8B3F43;}
	.st19{fill:#476C58;}
	.st20{fill:#A24F4D;}
	.st21{fill:#C5ADA4;}
	.st22{fill:#CCCBCB;}
	.st23{fill:#B79FA7;}
	.st24{fill:#815969;}
	.st25{fill:#A7A7A6;}
	.st26{fill:#D0AD76;}
	.st27{fill:#E8B953;}
	.st28{fill:#C59B6C;}
	.st29{fill:#F29222;}
	.st30{fill:#E6E5E5;}
	.st31{fill:#D2B79A;}
	.st32{fill:#BE8B65;}
	.st33{fill:#81A993;}
	.st34{fill:#9C7684;}
	.st35{fill:#824D61;}
	.st36{fill:#B14044;}
	.st37{fill:#8F5168;}
	.st38{fill:#D88EA9;}
	.st39{fill:#805C5C;}
	.st40{fill:#CCA3A3;}
	.st41{fill:#FFFFFF;}
	.st42{fill:#6A9DC3;}
	.st43{fill:#F49F5A;}
	.st44{fill:#6A3E4D;}
	.st45{fill:#F8AF3C;}
	.st46{fill:#EA5877;}
	.st47{fill:#F1D86A;}
	.st48{fill:#5EBEBD;}
	.st49{fill:#BDCD55;}
	.st50{fill:#A5A4A5;}
	.st51{fill:#B09FA0;}
	.st52{fill:#60AE9F;}
	.st53{fill:#BB8071;}
	.st54{fill:#9E7BB5;}
	.st55{fill:#A57C52;}
	.st56{fill:#E8973E;stroke:#E8973E;stroke-miterlimit:10;}
	.st57{fill:#AD375A;}
	.st58{fill:#7E8C66;}
	.st59{fill:#7C887F;}
	.st60{fill:#472912;}
	.st61{fill:#2B1A0F;}
	.st62{fill:#E52E31;}
	.st63{fill:#CA656A;}
	.st64{fill:#4E4D4D;}
	.st65{fill:#3A6D86;}
	.st66{fill:#1D1D1B;}
	.st67{fill:#0D0D0D;}
	.st68{fill:#EA94AA;}
	.st69{fill:#8DA198;}
	.st70{fill:#C896A9;}
	.st71{fill:#F5C645;}
	.st72{fill:#EFB443;}
	.st73{fill:#E68A44;}
	.st74{fill:#622C6A;}
	.st75{fill:#279352;}
	.st76{fill:#479754;}
	.st77{fill:#8764A2;}
	.st78{fill:#B59471;}
	.st79{fill:#B8D38E;}
	.st80{fill:#5CAF62;}
	.st81{fill:#F5DB56;}
	.st82{fill:#9C9E9F;}
	.st83{fill:#207242;}
	.st84{fill:#404041;}
	.st85{fill:#C1C2C1;}
	.st86{fill:#CBCACA;}
	.st87{fill:#904290;}
	.st88{fill:#129E56;}
	.st89{fill:#F1CC45;}
	.st90{fill:#5C3289;}
	.st91{fill:#2AA658;}
	.st92{fill:#C49A6C;}
	.st93{fill:#F1F1F1;}
	.st94{fill:#754D27;}
	.st95{fill:#8B6239;}
	.st96{fill:#B3B2B2;}
	.st97{fill:#979796;}
	.st98{fill:#C38045;}
	.st99{fill:#0E1014;}
	.st100{fill:#D8AA58;}
	.st101{fill:#0B0C0E;}
	.st102{fill:#6A4694;}
	.st103{fill:#3EA958;}
	.st104{fill:#FAD96F;}
	.st105{fill:#C58489;}
	.st106{fill:#C98C94;}
	.st107{fill:#2C2E30;}
	.st108{fill:#DDAAB1;}
	.st109{fill:#5A9AB5;}
	.st110{fill:#989898;}
	.st111{fill:#469771;}
	.st112{fill:#B59825;}
	.st113{fill:#E96C99;}
	.st114{fill:#BFA490;}
	.st115{fill:#808080;}
	.st116{fill:#80C9CB;}
	.st117{fill:#C9CE66;}
	.st118{fill:#72A6CB;}
	.st119{fill:#ED799D;}
	.st120{fill:#F4AB5E;}
	.st121{fill:#F2902A;}
	.st122{fill:#7FBB48;}
	.st123{fill:#ED7AA9;}
	.st124{fill:#53A2DA;}
	.st125{fill:#07473E;}
	.st126{fill:#960527;}
	.st127{fill:#110A09;}
	.st128{fill:#F15A24;}
	.st129{fill:#9B0808;}
	.st130{fill:#EFEFEF;}
	.st131{fill:#87C1BF;}
	.st132{fill:#E58645;}
	.st133{fill:#4F3928;}
	.st134{fill:#666666;}
	.st135{fill:#BDCCD4;}
	.st136{fill:#A0C1C0;}
</style>
<g>
	<g>
		<path className="st55" d="M186.76,152.78c21.79-30.6-0.23-53.56-37.64-56.82c-51.51-4.49-114.42,25.33-88.34,71.03
			c2.43,4.26,5.62,7.76,9.87,9.74c-3.55,7.56-3.73,17.12-3.42,25.26c1.31,33.76,7.97,36.29,76,25.73
			c24.86-3.86,29.57-8.14,39.16-10.73C232.83,203.4,178.71,164.09,186.76,152.78z"/>
		<path className="st14" d="M176.42,153.37c18.08-24.5,0.03-42.73-30.8-45.18c-42.44-3.37-94.41,20.67-73.1,57.02
			c1.99,3.39,4.6,6.17,8.09,7.73c-2.96,6.04-3.15,13.67-2.92,20.16c0.95,26.93,6.42,28.92,62.54,20.22
			c20.51-3.18,24.41-6.62,32.32-8.71C214.19,193.57,169.73,162.43,176.42,153.37z"/>
		<path className="st30" d="M162.46,106.94c-8.58-4.04-18.76-2.79-26.76,2.05c-10.11,6.12-15.96,17.01-17.87,28.42
			c-0.99,3.81-7.1-2.69-8.86-3.88c-3.11-2.11-6.41-3.92-9.9-5.3c-5.4-2.13-11.45-3.06-17.15-1.55c-9.84,2.6-15.76,11.86-16.9,21.56
			c-2.94,25.13,24.43,43.81,43.6,54.05c6.14,3.28,12.54,6.16,19.12,8.45c5.04,1.75,12.54,5.1,17.57,1.98
			c3.2-1.98,4.43-5.9,6.01-9.11c2.27-4.62,4.53-9.24,6.73-13.89c3.59-7.59,7.03-15.26,10.04-23.1
			C174.81,149.21,185.31,117.7,162.46,106.94z"/>
		<circle className="st56" cx="143.08" cy="151.38" r="17.96"/>
	</g>
	<g>
		<path className="st10" d="M317.66,138.96h-84.5c-6.6,0-12-5.4-12-12V99.64c0-6.6,5.4-12,12-12h84.5c6.6,0,12,5.4,12,12v27.32
			C329.66,133.56,324.26,138.96,317.66,138.96z"/>
		<path className="st11" d="M283.22,99.22c-1.55-1.29-3.7-1.57-5.6-1.01c-2.4,0.72-4.18,2.64-5.19,4.88c-0.41,0.73-1.31-0.93-1.61-1.27
			c-0.52-0.6-1.11-1.15-1.75-1.62c-1-0.73-2.19-1.24-3.44-1.23c-2.16,0.01-3.87,1.59-4.62,3.53c-1.95,5,2.68,10.3,6.07,13.42
			c1.09,1,2.25,1.93,3.47,2.75c0.94,0.63,2.3,1.72,3.5,1.34c0.76-0.24,1.22-0.98,1.72-1.55c0.71-0.83,1.42-1.65,2.12-2.49
			c1.14-1.37,2.26-2.76,3.29-4.21C283.49,108.55,287.33,102.64,283.22,99.22z"/>
		<path className="st30" d="M331.84,146.62H218.87c-4.85,0-8.81-3.97-8.81-8.81v-2.85c0-4.85,3.97-8.81,8.81-8.81h112.97
			c4.85,0,8.81,3.97,8.81,8.81v2.85C340.66,142.65,336.69,146.62,331.84,146.62z"/>
	</g>
	<g>
		<path className="st30" d="M302.03,249.41c-4.82-5.96-9.66-11.92-14.59-17.79c-4.27-5.09-8.52-10.21-12.74-15.35
			c0.01-0.02,0.03-0.03,0.04-0.05c-3.09-3.47-5.94-7.16-8.85-10.81c-0.91-1.13-1.82-2.25-2.72-3.38c-2.24-2.81-4.75-5.41-7.13-8.11
			c-0.31-0.35-0.62-0.68-0.8-0.88c0.41-1.49,0.95-2.8,1.09-4.16c0.14-1.28,0.02-2.64-0.26-3.9c-0.9-4.01-2.52-7.72-4.97-11.04
			c-3.75-5.08-7.52-10.14-11.29-15.2c-0.45-0.61-1.04-1.12-1.54-1.69c-0.87-0.98-1.98-1.21-3.23-1.09
			c-1.43,0.13-2.33,1.34-1.81,2.69c0.41,1.05,0.97,2.07,1.62,3c2.14,3.05,4.4,6.02,6.53,9.08c2.61,3.76,5.14,7.57,7.14,11.7
			c0.2,0.42,0.39,0.85,0.57,1.28c0.05,0.11,0.04,0.24,0.06,0.46c-0.57-0.11-0.73-0.58-0.98-0.91c-4.73-6.25-9.45-12.51-14.18-18.76
			c-0.97-1.28-1.98-2.54-3-3.79c-0.29-0.35-0.65-0.66-1.03-0.93c-0.47-0.34-0.95-0.24-1.42,0.05c-0.49,0.31-0.7,0.78-0.55,1.31
			c0.16,0.56,0.4,1.12,0.72,1.6c3.22,4.83,6.46,9.64,9.71,14.45c1.64,2.42,3.31,4.82,4.96,7.23c0.28,0.41,0.49,0.88,0.59,1.47
			c-0.2-0.15-0.43-0.28-0.6-0.47c-4.47-5.15-8.94-10.3-13.38-15.48c-1.18-1.38-2.23-2.88-3.39-4.29c-0.48-0.58-1.08-1.06-1.67-1.53
			c-0.45-0.36-0.95-0.29-1.41,0.03c-0.5,0.35-0.74,0.86-0.56,1.44c0.16,0.52,0.43,1.01,0.7,1.48c3.21,5.44,6.65,10.73,10.31,15.88
			c1.45,2.04,2.83,4.12,4.23,6.19c0.18,0.27,0.33,0.56,0.49,0.85c-0.08,0.07-0.16,0.14-0.24,0.2c-0.4-0.36-0.82-0.71-1.2-1.09
			c-3.8-3.93-7.59-7.87-11.41-11.78c-2.49-2.55-5.01-5.06-7.54-7.56c-0.38-0.37-0.88-0.69-1.38-0.84c-1.69-0.5-3.1,0.87-2.66,2.57
			c0.14,0.56,0.45,1.1,0.79,1.57c5.52,7.58,11.22,15.01,18.5,21.04c1.4,1.16,2.86,2.26,4.4,3.23c2.95,1.86,6.12,2.33,9.47,1.12
			c0.12-0.04,0.24-0.05,0.37-0.07c0.1,0.08,0.23,0.14,0.29,0.24c2.62,4.18,5.91,7.85,8.94,11.72c1.36,1.74,10.51,12.75,13.22,16.84
			c1.43,1.82,2.86,3.63,4.29,5.44c5.04,6.33,9.91,12.81,15.44,18.73c2.46,2.63,4.96,5.23,7.54,7.74c1.05,1.02,2.34,1.81,3.58,2.61
			c1.02,0.66,2.2,0.86,3.42,0.7c1.52-0.2,2.64-1.38,2.67-2.9c0.04-1.8-0.57-3.43-1.51-4.91
			C304.53,252.83,303.36,251.06,302.03,249.41z"/>
		<path className="st30" d="M275.88,167.69c-3.33-1.37-10.69-4.75-14.35-1.63c-3.44,2.93-1.45,8.54,0.34,11.22
			c4.08,6.11,11.4,10.6,17.45,14.25c0.1,0.06,28.93,13.67,30.19,13.27c6.28,2.08,12.65,3.94,18.98,5.79c0.02,0,0.03,0,0.04,0.01
			c3.69,1.97,8.59,4.62,10.68,6.03c1.63,0.9,3.25,1.8,4.89,2.69c5.72,3.12,11.34,6.42,17.33,9.03c2.66,1.16,5.35,2.28,8.07,3.29
			c1.11,0.41,2.34,0.56,3.53,0.72c0.98,0.14,1.96-0.15,2.87-0.73c1.13-0.73,1.68-2.09,1.28-3.32c-0.47-1.44-1.41-2.51-2.56-3.32
			c-1.39-0.98-2.81-1.95-4.31-2.75c-5.44-2.91-10.9-5.81-16.4-8.61c-4.77-2.43-9.53-4.88-14.27-7.37c0.01-0.02,0.01-0.04,0.02-0.05
			c-0.65-0.3-1.29-0.62-1.93-0.94C331.12,200.74,281,169.79,275.88,167.69z"/>
	</g>
	<g>
		<path className="st52" d="M283.22,286.49c-0.68-5.5-2.95-10.38-6.83-14.42c-3.3-3.43-7.31-5.73-11.83-7.19
			c-1.57-0.51-3.1-1.15-4.63-1.78c-1.16-0.47-1.98-1.2-2.52-2.14c-0.17-2.14-0.34-4.27-0.57-6.4c-0.23-2.21-0.52-4.38-1.98-6.16
			c-3.29-4.02-10.89-3.91-15.59-4.51c-13.81-1.75-27.83-1.63-41.73-1.56c-14.03,0.07-28.06,0.46-42.07,1.18
			c-10.63,0.55-25.97,2.81-31.19,8.33c-0.13,0.13-0.24,0.27-0.34,0.4c-1.07,1.03-1.85,2.32-2.28,3.95c-0.51,1.91-0.77,3.84-0.88,5.8
			c-0.28,4.95,0.11,9.86,0.88,14.74c0.85,5.39,2.35,10.61,4.13,15.76c1.7,4.93,3.82,9.68,6.59,14.11c1.35,2.15,2.76,4.25,4.14,6.38
			c3.2,4.95,7.07,9.3,11.61,13.06c4.85,4.01,10.09,7.37,16,9.62c0.11,0.04,0.2,0.11,0.35,0.19c-0.27,0.33-0.49,0.59-0.69,0.85
			c-1.42,1.84-1.15,3.69,0.83,4.92c0.85,0.52,1.82,0.95,2.79,1.13c2.39,0.44,4.8,0.83,7.22,1.02c3.33,0.27,6.68,0.34,10.02,0.49
			c5.48,0.24,10.94,0.07,16.41-0.41c3.07-0.27,6.09-0.84,9.09-1.5c1.13-0.25,2.25-0.75,3.25-1.35c1.77-1.05,2.62-2.7,2.46-4.78
			c-0.05-0.68-0.36-1.35-0.58-2.1c0.34-0.14,0.74-0.31,1.14-0.46c4.05-1.49,7.88-3.4,11.39-5.91c2.84-2.03,5.46-4.31,7.85-6.87
			c1.7-1.81,3.74-2.86,6.3-2.68c0.98,0.07,1.96,0.11,2.93,0.19c1.48,0.12,2.96,0.32,4.44,0.39c4.32,0.19,8.57-0.39,12.75-1.4
			c4.29-1.03,8.31-2.73,11.62-5.71C281.23,304.94,284.45,296.49,283.22,286.49z M260.15,305.22c-2.77,0.79-5.6,1.24-8.49,1.38
			c-0.81-0.04-1.62-0.03-2.42-0.13c-1.78-0.23-2.56-1.29-2.22-3.04c0.14-0.72,0.31-1.46,0.62-2.13c2.97-6.4,5.11-13.06,6.56-19.96
			c0.19-0.89,0.45-1.77,0.81-2.6c0.87-2.04,2.38-2.87,4.54-2.42c5.88,1.22,10.28,4.92,11.5,11.44
			C272.48,295.4,267.7,303.07,260.15,305.22z"/>
		<path className="st10" d="M212.49,279.8c-3.19-2.93-7.8-3.77-11.95-2.75c-5.24,1.29-9.28,5.24-11.67,9.96
			c-0.95,1.53-2.73-2.14-3.33-2.9c-1.07-1.35-2.26-2.58-3.6-3.66c-2.07-1.67-4.58-2.89-7.27-3.01c-4.65-0.21-8.49,3.02-10.31,7.1
			c-4.71,10.56,4.68,22.43,11.65,29.52c2.23,2.27,4.63,4.4,7.19,6.29c1.96,1.45,4.77,3.93,7.39,3.26c1.66-0.43,2.74-1.97,3.86-3.16
			c1.62-1.7,3.23-3.41,4.83-5.14c2.6-2.82,5.15-5.7,7.53-8.7C212.11,299.92,220.98,287.61,212.49,279.8z"/>
		<ellipse className="st55" cx="189.27" cy="254.75" rx="57.55" ry="5.5"/>
	</g>
</g>
</svg>
