<?xml version="1.0" encoding="UTF-8" standalone="no"?>
<!-- Created with Inkscape (http://www.inkscape.org/) -->

<svg
   xmlns:dc="http://purl.org/dc/elements/1.1/"
   xmlns:cc="http://creativecommons.org/ns#"
   xmlns:rdf="http://www.w3.org/1999/02/22-rdf-syntax-ns#"
   xmlns:svg="http://www.w3.org/2000/svg"
   xmlns="http://www.w3.org/2000/svg"
   xmlns:sodipodi="http://sodipodi.sourceforge.net/DTD/sodipodi-0.dtd"
   xmlns:inkscape="http://www.inkscape.org/namespaces/inkscape"
   id="svg2"
   xml:space="preserve"
   viewBox="0 0 841.9 595.3"
   version="1.1"
   inkscape:version="0.91 r13725"
   sodipodi:docname="food-hearty-isolated.svg"
   width="auto"
   height="50"><sodipodi:namedview
     pagecolor="#ffffff"
     bordercolor="#666666"
     borderopacity="1"
     objecttolerance="10"
     gridtolerance="10"
     guidetolerance="10"
     inkscape:pageopacity="0"
     inkscape:pageshadow="2"
     inkscape:window-width="1916"
     inkscape:window-height="1035"
     id="namedview47849"
     showgrid="false"
     fit-margin-top="0"
     fit-margin-left="0"
     fit-margin-right="0"
     fit-margin-bottom="0"
     inkscape:zoom="0.93216569"
     inkscape:cx="416.01517"
     inkscape:cy="338.00781"
     inkscape:window-x="4"
     inkscape:window-y="1"
     inkscape:window-maximized="1"
     inkscape:current-layer="g12" /><defs
     id="defs6"><linearGradient
       id="linearGradient24"
       y2="-10916"
       gradientUnits="userSpaceOnUse"
       x2="-3014.8"
       gradientTransform="matrix(0.24115,-0.39819,0.39819,0.24115,5099.1,1444.8)"
       y1="-10916"
       x1="-3023.3"><stop
         id="stop26"
         style="stop-color:#e9b140"
         offset="0" /><stop
         id="stop28"
         style="stop-color:#c47e00"
         offset="1" /></linearGradient><linearGradient
       id="linearGradient78"
       y2="428.75"
       gradientUnits="userSpaceOnUse"
       x2="501.85999"
       gradientTransform="matrix(0.4648,0.02607,-0.02607,0.4648,-193.62,-190.34)"
       y1="428.75"
       x1="479.5"><stop
         id="stop80"
         style="stop-color:#fdcb53"
         offset="0" /><stop
         id="stop82"
         style="stop-color:#d48801"
         offset="1" /></linearGradient><linearGradient
       id="linearGradient100"
       y2="-14336"
       gradientUnits="userSpaceOnUse"
       x2="-1581"
       gradientTransform="matrix(0.10211,-0.45418,0.45418,0.10211,6691.7,765.45)"
       y1="-14336"
       x1="-1589.9"><stop
         id="stop102"
         style="stop-color:#fdcb53"
         offset="0" /><stop
         id="stop104"
         style="stop-color:#d48801"
         offset="1" /></linearGradient><linearGradient
       id="linearGradient118"
       y2="-19358"
       gradientUnits="userSpaceOnUse"
       x2="10977"
       gradientTransform="matrix(-0.3995,-0.23898,0.23898,-0.3995,9026.8,-5090.2)"
       y1="-19358"
       x1="10960"><stop
         id="stop120"
         style="stop-color:#d69211"
         offset="0" /><stop
         id="stop122"
         style="stop-color:#c98000"
         offset="1" /></linearGradient><linearGradient
       id="linearGradient138"
       y2="434.87"
       gradientUnits="userSpaceOnUse"
       x2="488.23999"
       gradientTransform="matrix(0.4648,0.025946,-0.025946,0.4648,-192.58,-189.17)"
       y1="434.87"
       x1="468.03"><stop
         id="stop140"
         style="stop-color:#fdcb53"
         offset="0" /><stop
         id="stop142"
         style="stop-color:#d48801"
         offset="1" /></linearGradient><linearGradient
       id="linearGradient158"
       y2="432.38"
       gradientUnits="userSpaceOnUse"
       x2="490.59"
       gradientTransform="matrix(0.46486,0.025636,-0.025636,0.46486,-190.59,-186.95)"
       y1="432.38"
       x1="474.72"><stop
         id="stop160"
         style="stop-color:#fdcb53"
         offset="0" /><stop
         id="stop162"
         style="stop-color:#d48801"
         offset="1" /></linearGradient><linearGradient
       id="linearGradient178"
       y2="433.73999"
       gradientUnits="userSpaceOnUse"
       x2="506.5"
       gradientTransform="matrix(0.4648,0.02607,-0.02607,0.4648,-193.74,-190.47)"
       y1="433.73999"
       x1="488.19"><stop
         id="stop180"
         style="stop-color:#fdcb53"
         offset="0" /><stop
         id="stop182"
         style="stop-color:#d48801"
         offset="1" /></linearGradient><linearGradient
       id="linearGradient274"
       y2="-10916"
       gradientUnits="userSpaceOnUse"
       x2="-3014.8"
       gradientTransform="matrix(0.27932,-0.46121,0.46121,0.27932,5911.5,1665.3)"
       y1="-10916"
       x1="-3023.3"><stop
         id="stop276"
         style="stop-color:#e9b140"
         offset="0" /><stop
         id="stop278"
         style="stop-color:#c47e00"
         offset="1" /></linearGradient><linearGradient
       id="linearGradient328"
       y2="428.75"
       gradientUnits="userSpaceOnUse"
       x2="501.85999"
       gradientTransform="matrix(0.53836,0.030196,-0.030196,0.53836,-218.9,-228.62)"
       y1="428.75"
       x1="479.5"><stop
         id="stop330"
         style="stop-color:#fdcb53"
         offset="0" /><stop
         id="stop332"
         style="stop-color:#d48801"
         offset="1" /></linearGradient><linearGradient
       id="linearGradient350"
       y2="-14336"
       gradientUnits="userSpaceOnUse"
       x2="-1581"
       gradientTransform="matrix(0.11827,-0.52606,0.52606,0.11827,7756.1,878.44)"
       y1="-14336"
       x1="-1589.9"><stop
         id="stop352"
         style="stop-color:#fdcb53"
         offset="0" /><stop
         id="stop354"
         style="stop-color:#d48801"
         offset="1" /></linearGradient><linearGradient
       id="linearGradient368"
       y2="-19358"
       gradientUnits="userSpaceOnUse"
       x2="10977"
       gradientTransform="matrix(-0.46272,-0.2768,0.2768,-0.46272,10461,-5904)"
       y1="-19358"
       x1="10960"><stop
         id="stop370"
         style="stop-color:#d69211"
         offset="0" /><stop
         id="stop372"
         style="stop-color:#c98000"
         offset="1" /></linearGradient><linearGradient
       id="linearGradient388"
       y2="434.87"
       gradientUnits="userSpaceOnUse"
       x2="488.23999"
       gradientTransform="matrix(0.53836,0.030052,-0.030052,0.53836,-217.69,-227.27)"
       y1="434.87"
       x1="468.03"><stop
         id="stop390"
         style="stop-color:#fdcb53"
         offset="0" /><stop
         id="stop392"
         style="stop-color:#d48801"
         offset="1" /></linearGradient><linearGradient
       id="linearGradient408"
       y2="432.38"
       gradientUnits="userSpaceOnUse"
       x2="490.59"
       gradientTransform="matrix(0.53843,0.029693,-0.029693,0.53843,-215.38,-224.69)"
       y1="432.38"
       x1="474.72"><stop
         id="stop410"
         style="stop-color:#fdcb53"
         offset="0" /><stop
         id="stop412"
         style="stop-color:#d48801"
         offset="1" /></linearGradient><linearGradient
       id="linearGradient428"
       y2="433.73999"
       gradientUnits="userSpaceOnUse"
       x2="506.5"
       gradientTransform="matrix(0.53836,0.030196,-0.030196,0.53836,-219.04,-228.77)"
       y1="433.73999"
       x1="488.19"><stop
         id="stop430"
         style="stop-color:#fdcb53"
         offset="0" /><stop
         id="stop432"
         style="stop-color:#d48801"
         offset="1" /></linearGradient><linearGradient
       id="linearGradient524"
       y2="-10916"
       gradientUnits="userSpaceOnUse"
       x2="-3014.8"
       gradientTransform="matrix(0.27932,-0.43627,0.46121,0.26421,5890.7,1576.5)"
       y1="-10916"
       x1="-3023.3"><stop
         id="stop526"
         style="stop-color:#e9b140"
         offset="0" /><stop
         id="stop528"
         style="stop-color:#c47e00"
         offset="1" /></linearGradient><linearGradient
       id="linearGradient578"
       y2="428.75"
       gradientUnits="userSpaceOnUse"
       x2="501.85999"
       gradientTransform="matrix(0.53836,0.028563,-0.030196,0.50924,-239.7,-214.92)"
       y1="428.75"
       x1="479.5"><stop
         id="stop580"
         style="stop-color:#fdcb53"
         offset="0" /><stop
         id="stop582"
         style="stop-color:#d48801"
         offset="1" /></linearGradient><linearGradient
       id="linearGradient600"
       y2="-14336"
       gradientUnits="userSpaceOnUse"
       x2="-1581"
       gradientTransform="matrix(0.11827,-0.49762,0.52606,0.11187,7735.3,832.27)"
       y1="-14336"
       x1="-1589.9"><stop
         id="stop602"
         style="stop-color:#fdcb53"
         offset="0" /><stop
         id="stop604"
         style="stop-color:#d48801"
         offset="1" /></linearGradient><linearGradient
       id="linearGradient618"
       y2="-19358"
       gradientUnits="userSpaceOnUse"
       x2="10977"
       gradientTransform="matrix(-0.46272,-0.26183,0.2768,-0.4377,10440,-5583.4)"
       y1="-19358"
       x1="10960"><stop
         id="stop620"
         style="stop-color:#d69211"
         offset="0" /><stop
         id="stop622"
         style="stop-color:#c98000"
         offset="1" /></linearGradient><linearGradient
       id="linearGradient638"
       y2="434.87"
       gradientUnits="userSpaceOnUse"
       x2="488.23999"
       gradientTransform="matrix(0.53836,0.028427,-0.030052,0.50924,-238.49,-213.65)"
       y1="434.87"
       x1="468.03"><stop
         id="stop640"
         style="stop-color:#fdcb53"
         offset="0" /><stop
         id="stop642"
         style="stop-color:#d48801"
         offset="1" /></linearGradient><linearGradient
       id="linearGradient658"
       y2="432.38"
       gradientUnits="userSpaceOnUse"
       x2="490.59"
       gradientTransform="matrix(0.53843,0.028087,-0.029693,0.50931,-236.18,-211.21)"
       y1="432.38"
       x1="474.72"><stop
         id="stop660"
         style="stop-color:#fdcb53"
         offset="0" /><stop
         id="stop662"
         style="stop-color:#d48801"
         offset="1" /></linearGradient><linearGradient
       id="linearGradient678"
       y2="433.73999"
       gradientUnits="userSpaceOnUse"
       x2="506.5"
       gradientTransform="matrix(0.53836,0.028563,-0.030196,0.50924,-239.84,-215.07)"
       y1="433.73999"
       x1="488.19"><stop
         id="stop680"
         style="stop-color:#fdcb53"
         offset="0" /><stop
         id="stop682"
         style="stop-color:#d48801"
         offset="1" /></linearGradient><linearGradient
       id="linearGradient774"
       y2="-10916"
       gradientUnits="userSpaceOnUse"
       x2="-3014.8"
       gradientTransform="matrix(0.3108,-0.5132,0.5132,0.3108,6559.2,1845.3)"
       y1="-10916"
       x1="-3023.3"><stop
         id="stop776"
         style="stop-color:#e9b140"
         offset="0" /><stop
         id="stop778"
         style="stop-color:#c47e00"
         offset="1" /></linearGradient><linearGradient
       id="linearGradient828"
       y2="428.75"
       gradientUnits="userSpaceOnUse"
       x2="501.85999"
       gradientTransform="matrix(0.59904,0.0336,-0.0336,0.59904,-262.28,-262.04)"
       y1="428.75"
       x1="479.5"><stop
         id="stop830"
         style="stop-color:#fdcb53"
         offset="0" /><stop
         id="stop832"
         style="stop-color:#d48801"
         offset="1" /></linearGradient><linearGradient
       id="linearGradient850"
       y2="-14336"
       gradientUnits="userSpaceOnUse"
       x2="-1581"
       gradientTransform="matrix(0.1316,-0.58536,0.58536,0.1316,8611.7,969.8)"
       y1="-14336"
       x1="-1589.9"><stop
         id="stop852"
         style="stop-color:#fdcb53"
         offset="0" /><stop
         id="stop854"
         style="stop-color:#d48801"
         offset="1" /></linearGradient><linearGradient
       id="linearGradient868"
       y2="-19358"
       gradientUnits="userSpaceOnUse"
       x2="10977"
       gradientTransform="matrix(-0.51488,-0.308,0.308,-0.51488,11621,-6577.2)"
       y1="-19358"
       x1="10960"><stop
         id="stop870"
         style="stop-color:#d69211"
         offset="0" /><stop
         id="stop872"
         style="stop-color:#c98000"
         offset="1" /></linearGradient><linearGradient
       id="linearGradient888"
       y2="434.87"
       gradientUnits="userSpaceOnUse"
       x2="488.23999"
       gradientTransform="matrix(0.59904,0.03344,-0.03344,0.59904,-260.93,-260.54)"
       y1="434.87"
       x1="468.03"><stop
         id="stop890"
         style="stop-color:#fdcb53"
         offset="0" /><stop
         id="stop892"
         style="stop-color:#d48801"
         offset="1" /></linearGradient><linearGradient
       id="linearGradient908"
       y2="432.38"
       gradientUnits="userSpaceOnUse"
       x2="490.59"
       gradientTransform="matrix(0.59912,0.03304,-0.03304,0.59912,-258.36,-257.67)"
       y1="432.38"
       x1="474.72"><stop
         id="stop910"
         style="stop-color:#fdcb53"
         offset="0" /><stop
         id="stop912"
         style="stop-color:#d48801"
         offset="1" /></linearGradient><linearGradient
       id="linearGradient928"
       y2="433.73999"
       gradientUnits="userSpaceOnUse"
       x2="506.5"
       gradientTransform="matrix(0.59904,0.0336,-0.0336,0.59904,-262.44,-262.21)"
       y1="433.73999"
       x1="488.19"><stop
         id="stop930"
         style="stop-color:#fdcb53"
         offset="0" /><stop
         id="stop932"
         style="stop-color:#d48801"
         offset="1" /></linearGradient></defs><g
     id="g10"
     transform="matrix(1.25,0,0,-1.25,390.00417,399.66371)"><g
       id="g12"><g
         id="g48636"
         transform="translate(31.754012,23.171846)"><path
           inkscape:connector-curvature="0"
           d="m 56.80163,184.31115 c 1.998,0.432 3.915,-0.837 5.589,-3.78 2.106,-2.862 2.97,-6.021 2.538,-9.396 -0.432,-2.97 -2.322,-4.86 -5.697,-5.697 -2.835,-0.324 -4.752,0.837 -5.589,3.807 -0.837,2.511 -0.837,5.67 0,9.477 0.837,2.862 1.89,4.752 3.159,5.589 z"
           style="fill:#eb4600;fill-rule:evenodd"
           id="path46" /><path
           inkscape:connector-curvature="0"
           d="m 56.18063,159.84915 c 4.941,-4.212 5.373,-6.75 1.161,-7.587 -4.968,-1.269 -7.911,-0.864 -8.748,1.269 -0.864,0.837 -0.216,2.511 1.89,5.049 2.106,2.106 3.996,2.538 5.697,1.269 z"
           style="fill:#eb4600;fill-rule:evenodd"
           id="path48" /><path
           inkscape:connector-curvature="0"
           d="m -45.71737,266.68815 c 2.97,-6.75 3.186,-11.718 0.648,-15.093 -3.375,-3.375 -5.184,-3.375 -5.589,0 -0.432,2.106 0.216,5.4 1.89,10.017 1.161,4.644 2.214,6.345 3.051,5.076 z"
           style="fill:#eb4600;fill-rule:evenodd"
           id="path50" /><path
           inkscape:connector-curvature="0"
           d="m 195.60863,173.02515 c 3.375,-1.674 4.428,-4.428 3.159,-8.235 -1.674,-3.672 -3.267,-4.32 -4.968,-1.782 -1.242,1.701 -1.674,3.915 -1.242,6.858 0.837,2.538 1.89,3.591 3.051,3.159 z"
           style="fill:#eb4600;fill-rule:evenodd"
           id="path52" /><path
           inkscape:connector-curvature="0"
           d="m 234.62363,149.07615 c 3.375,-4.941 5.076,-10.017 5.076,-15.066 0,-4.536 -1.701,-5.805 -5.076,-3.699 -2.943,1.998 -3.996,6.237 -3.159,12.555 0.432,6.642 1.485,8.748 3.159,6.21 z"
           style="fill:#eb4600;fill-rule:evenodd"
           id="path54" /><path
           inkscape:connector-curvature="0"
           d="m 54.91163,237.79815 c 12.96,-5.508 18.468,-12.042 16.335,-19.521 -2.106,-7.587 -7.587,-9.504 -16.335,-5.697 -7.182,2.943 -9.909,8.235 -8.235,15.714 1.269,8.019 4.023,11.07 8.235,9.504 z"
           style="fill:#ff7f47;fill-rule:evenodd"
           id="path62" /><path
           inkscape:connector-curvature="0"
           d="m 208.89263,215.73915 c 13.824,-0.837 19.413,-4.428 16.983,-10.638 -2.538,-6.345 -8.235,-8.667 -16.983,-6.966 -7.587,1.674 -11.178,5.049 -10.746,10.125 0.405,5.373 3.996,7.911 10.746,7.479 z"
           style="fill:#ff7f47;fill-rule:evenodd"
           id="path64" /><path
           inkscape:connector-curvature="0"
           d="m 276.60863,33.81315 c 2.43,0.513 4.644,-0.945 6.642,-4.32 2.43,-3.375 3.375,-7.074 2.835,-10.962 -0.513,-3.375 -2.619,-5.616 -6.534,-6.561 -3.375,-0.405 -5.589,0.945 -6.534,4.428 -0.945,2.862 -0.945,6.561 0,10.881 0.945,3.375 2.214,5.589 3.591,6.534 z"
           style="fill:#eb4600;fill-rule:evenodd"
           id="path296" /><path
           inkscape:connector-curvature="0"
           d="m 275.87963,5.43615 c 5.886,-4.86 6.318,-7.695 1.458,-8.748 -5.805,-1.377 -9.18,-0.945 -10.125,1.485 -1.053,0.945 -0.324,2.943 2.106,5.778 2.43,2.43 4.644,2.97 6.561,1.485 z"
           style="fill:#eb4600;fill-rule:evenodd"
           id="path298" /><path
           inkscape:connector-curvature="0"
           d="m 157.94363,129.25815 c 3.483,-7.803 3.699,-13.608 0.756,-17.496 -3.915,-3.915 -6.021,-3.915 -6.561,0 -0.405,2.403 0.216,6.318 2.241,11.691 1.458,5.292 2.619,7.182 3.564,5.805 z"
           style="fill:#eb4600;fill-rule:evenodd"
           id="path300" /><path
           inkscape:connector-curvature="0"
           d="m -284.91037,54.06315 c 2.43,0.513 4.536,-0.945 6.534,-4.104 2.43,-3.186 3.375,-6.669 2.862,-10.341 -0.432,-3.159 -2.646,-5.292 -6.561,-6.237 -3.375,-0.405 -5.589,0.945 -6.534,4.239 -0.945,2.727 -0.945,6.102 0,10.314 0.945,3.186 2.214,5.184 3.699,6.129 z"
           style="fill:#eb4600;fill-rule:evenodd"
           id="path546" /><path
           inkscape:connector-curvature="0"
           d="m -124.07137,41.72415 c 3.915,-1.89 5.076,-4.86 3.591,-8.964 -1.89,-4.104 -3.807,-4.86 -5.805,-2.106 -1.485,1.89 -1.89,4.428 -1.485,7.587 1.053,2.754 2.214,3.915 3.699,3.483 z"
           style="fill:#eb4600;fill-rule:evenodd"
           id="path552" /><path
           inkscape:connector-curvature="0"
           d="m -78.92737,15.56115 c 3.888,-5.589 5.805,-11.07 5.805,-16.551 0,-5.076 -1.917,-6.426 -5.805,-4.104 -3.375,2.214 -4.644,6.831 -3.699,13.689 0.54,7.398 1.809,9.72 3.699,6.966 z"
           style="fill:#eb4600;fill-rule:evenodd"
           id="path554" /><path
           inkscape:connector-curvature="0"
           d="m 52.04963,121.56315 c 2.43,-0.945 3.915,-3.699 4.455,-8.235 0.945,-5.049 -0.324,-8.316 -3.699,-9.693 -3.375,-1.377 -6.129,-0.432 -8.019,2.727 -1.485,3.294 -2.214,6.453 -2.214,9.72 0,2.214 1.269,4.104 3.699,5.481 1.89,0.945 3.888,0.945 5.778,0 z"
           style="fill:#eb4600;fill-rule:evenodd"
           id="path556" /><path
           inkscape:connector-curvature="0"
           d="m 121.25063,220.05915 c 4.32,-1.35 6.75,-2.511 7.29,-3.483 0,-0.945 -0.54,-2.106 -1.485,-3.456 -0.432,-1.377 -1.917,-1.377 -4.32,0 -3.915,1.89 -6.345,2.727 -7.29,2.727 -2.43,0.54 -2.43,1.377 0,2.754 1.89,1.458 3.807,1.89 5.805,1.458 z"
           style="fill:#eb4600;fill-rule:evenodd"
           id="path558" /><path
           inkscape:connector-curvature="0"
           d="m -108.78937,88.54215 c 16.038,-0.945 22.572,-4.833 19.629,-11.691 -2.835,-6.966 -9.504,-9.504 -19.629,-7.614 -8.748,1.809 -12.852,5.508 -12.42,10.989 0.513,5.994 4.617,8.748 12.42,8.316 z"
           style="fill:#ff7f47;fill-rule:evenodd"
           id="path564" /><path
           inkscape:connector-curvature="0"
           d="m 79.04963,186.30915 c 12.15,-4.644 10.125,-10.314 -5.886,-17.28 -6.237,-2.214 -8.019,0.513 -5.076,8.316 2.97,7.803 6.534,10.773 10.962,8.964 z"
           style="fill:#ff7f47;fill-rule:evenodd"
           id="path566" /><g
           transform="matrix(27,0,0,27,-416.53537,-256.24785)"
           id="g764"><g
             id="g766"><g
               id="g772"><path
                 inkscape:connector-curvature="0"
                 d="M 19.281,12.102 C 23.582,12.001 25.93,11.161 26.332,9.583 26.852,7.481 26.711,5.684 25.91,4.184 25.051,2.583 23.512,1.454 21.289,0.794 19.75,0.333 17.781,0.075 15.383,0.012 12.98,-0.05 11.152,0.114 9.891,0.493 c -3.282,1 -4.95,2.801 -5.008,5.402 0,0.817 0.148,1.657 0.449,2.516 l 0.48,1.082 c 1.2,0.199 2.387,0.559 3.571,1.082 2.539,1.117 5.836,1.629 9.898,1.527 z"
                 style="fill:url(#linearGradient774);fill-rule:evenodd"
                 id="path780" /></g></g></g><path
           inkscape:connector-curvature="0"
           d="m -270.97837,-26.72085 c 19.926,35.64 115.479,53.46 286.659,53.46 165.267,-0.513 257.121,-11.07 275.481,-31.536 15.093,-17.28 14.013,-41.013 -3.267,-71.28 -17.307,-30.807 -44.307,-54 -81,-69.633 -42.093,-18.441 -90.18,-31.32 -144.18,-38.907 -65.394,-9.18 -132.246,-8.64 -200.907,1.593 -57.186,8.1 -98.523,27.837 -123.93,59.157 -24.786,30.159 -27.756,62.64 -8.856,97.146 z"
           style="fill:#ffd15b;fill-rule:evenodd"
           id="path782" /><path
           id="path48619"
           style="fill:#668000;fill-rule:evenodd"
           d="m 183.41227,57.436139 54.297,-30.807 c 18.9,-11.394 29.43,-25.1100003 31.536,-41.337001 0.54,-1.593 -0.297,-12.986999 -2.403,-33.965999 -0.54,-11.907 -3.483,-28.674 -8.964,-50.301 -1.593,-10.232999 -5.913,-18.035999 -12.879,-23.408999 -9.801,-6.021 -18.144,-11.61 -25.218,-17.091 -7.479,-5.913 -18.036,-9.18 -31.536,-9.72 -18.333,-1.053 -30.78,-2.619 -37.314,-4.833 -16.686,-7.614 -28.809,-12.663 -36.396,-15.417 -13.5,-5.886 -25.110002,-8.64 -34.803002,-8.019 -25.947,1.593 -53.487,-4.617 -82.7009999,-18.657 -39.9600001,-19.413 -73.7100001,-27.513 -101.2499981,-24.354 -13.5,1.674 -22.653,4.941 -27.513,9.801 -3.807,5.373 -6.75,9.693 -8.856,12.96 -4.32,5.913 -30.807,15.309 -79.434,28.377 -18.333,4.86 -29.943,11.286 -34.803,19.413 -3.267,4.86 -5.157,13.716 -5.697,26.676 -0.513,8.127 -6.21,17.307 -16.983,27.539999 -12.96,11.394 -22.653,20.574 -29.214,27.513 -7.992,8.667 -6.939,16.767 3.294,24.381 8.64,6.426 16.956,9.693 25.083,9.693 1.593,0 8.964,8.856 21.843,26.6759995 13.5,18.9000005 27.837,30.2670005 42.93,33.9660005 19.494,7.587 91.314,15.201 215.5679981,22.788 62.5319999,3.159 123.0930019,5.913 181.4130019,8.127 z"
           inkscape:connector-curvature="0" /><path
           inkscape:connector-curvature="0"
           d="m 186.84514,65.160088 54.297,-30.807 c 18.9,-11.394 29.43,-25.1100006 31.536,-41.337001 0.54,-1.593 -0.297,-12.986999 -2.403,-33.965999 -0.54,-11.907 -3.483,-28.674 -8.964,-50.301004 -1.593,-10.233004 -5.913,-18.036004 -12.879,-23.409004 -9.801,-6.021 -18.144,-11.61 -25.218,-17.091 -7.479,-5.913 -18.036,-9.18 -31.536,-9.72 -18.333,-1.053 -30.78,-2.619 -37.314,-4.833 -16.686,-7.614 -28.809,-12.663 -36.396,-15.417 -13.5,-5.886 -25.110006,-8.64 -34.803006,-8.019 -25.947,1.593 -53.487,-4.617 -82.70099984,-18.657 -39.96000016,-19.413 -73.71000016,-27.513 -101.24999416,-24.354 -13.5,1.674 -22.653,4.941 -27.513,9.801 -3.807,5.373 -6.75,9.693 -8.856,12.96 -4.32,5.913 -30.807,15.309 -79.434,28.377 -18.333,4.86 -29.943,11.286 -34.803,19.413 -3.267,4.86 -5.157,13.716 -5.697,26.676 -0.513,8.127 -6.21,17.307004 -16.983,27.540004 -12.96,11.394004 -22.653,20.574004 -29.214,27.513004 -7.992,8.667 -6.939,16.767 3.294,24.381 8.64,6.426 16.956,9.693 25.083,9.693 1.593,0 8.964,8.856 21.843,26.67599902 13.5,18.90000098 27.837,30.26700098 42.93,33.96600098 19.494,7.587 91.314,15.201 215.5679942,22.788 62.5319998,3.159 123.0930058,5.913 181.4130058,8.127 z"
           style="fill:#758e12;fill-opacity:1;fill-rule:evenodd"
           id="path48621" /><path
           inkscape:connector-curvature="0"
           d="m 266.88863,58.38315 c 9.18,-4.86 17.199,-14.013 24.273,-27.513 6.426,-13.5 8.64,-25.434 6.426,-35.667 -1.053,-7.587 -2.619,-15.174 -4.833,-22.68 -1.08,-6.534 -1.377,-17.604 -0.864,-33.21 0.648,-16.254 -3.483,-28.89 -12.123,-38.07 -3.699,-3.807 -13.5,-10.233 -29.106,-19.413 -7.074,-3.807 -17.604,-6.021 -31.644,-6.534 -14.013,-0.54 -25.623,-3.483 -34.803,-8.856 -31.32,-17.82 -61.587,-27.324 -90.693,-28.377 -14.553,-0.54 -32.697,-5.913 -54.324,-16.254 -30.807,-15.066 -50.517,-24.03 -59.076,-26.676 -20.034,-7.074 -39.231,-8.964 -57.564,-5.697 -16.146,2.754 -26.163,8.127 -29.97,16.254 -5.373,12.339 -35.64,25.083 -90.693,38.07 -30.267,6.966 -48.087,28.053 -53.487,63.18 -1.053,4.833 -7.263,14.229 -18.549,28.35 -10.854,13.419 -16.767,23.436 -17.82,29.97 -1.161,6.966 8.019,16.443 27.513,28.269 22.167,13.5 33.966,22.14 35.559,25.947 9.801,18.873 92.07,31.833 247.104,38.907 148.5,6.966 230.04,6.966 244.674,0 z"
           style="fill:#57390d;fill-rule:evenodd"
           id="path784" /><path
           inkscape:connector-curvature="0"
           d="m 212.59163,89.19015 54.297,-30.807 c 18.9,-11.394 29.43,-25.11 31.536,-41.337 0.54,-1.593 -0.297,-12.987 -2.403,-33.966 -0.54,-11.907 -3.483,-28.674 -8.964,-50.301 -1.593,-10.233 -5.913,-18.036 -12.879,-23.409 -9.801,-6.021 -18.144,-11.61 -25.218,-17.091 -7.479,-5.913 -18.036,-9.18 -31.536,-9.72 -18.333,-1.053 -30.78,-2.619 -37.314,-4.833 -16.686,-7.614 -28.809,-12.663 -36.396,-15.417 -13.5,-5.886 -25.11,-8.64 -34.803,-8.019 -25.947,1.593 -53.487,-4.617 -82.701,-18.657 -39.96,-19.413 -73.71,-27.513 -101.25,-24.354 -13.5,1.674 -22.653,4.941 -27.513,9.801 -3.807,5.373 -6.75,9.693 -8.856,12.96 -4.32,5.913 -30.807,15.309 -79.434,28.377 -18.333,4.86 -29.943,11.286 -34.803,19.413 -3.267,4.86 -5.157,13.716 -5.697,26.676 -0.513,8.127 -6.21,17.307 -16.983,27.54 -12.96,11.394 -22.653,20.574 -29.214,27.513 -7.992,8.667 -6.939,16.767 3.294,24.381 8.64,6.426 16.956,9.693 25.083,9.693 1.593,0 8.964,8.856 21.843,26.676 13.5,18.9 27.837,30.267 42.93,33.966 19.494,7.587 91.314,15.201 215.568,22.788 62.532,3.159 123.093,5.913 181.413,8.127 z"
           style="fill:#80561c;fill-rule:evenodd"
           id="path786" /><path
           inkscape:connector-curvature="0"
           d="m 266.88863,64.80915 c 33.966,-10.746 54,-25.083 59.913,-42.903 4.32,-12.987 1.377,-24.273 -8.964,-33.966 -5.913,-6.021 -15.93,-11.394 -29.943,-16.254 -3.267,-1.566 -18.873,-6.966 -46.926,-16.146 -12.987,-4.428 -23.328,-16.227 -30.807,-35.64 -8.127,-20.034 -15.93,-31.86 -23.517,-35.64 -7.074,-3.267 -19.926,-11.394 -38.934,-24.354 -18.333,-11.826 -33.939,-20.466 -46.926,-25.866 -14.013,-5.994 -30.267,-6.534 -48.627,-1.674 -30.78,8.127 -48.816,12.447 -54.297,12.96 -10.233,1.161 -24.786,0.54 -43.686,-1.566 -12.42,-1.593 -25.407,0.324 -38.907,5.697 -43.659,12.339 -77.409,23.949 -101.25,34.803 -10.746,4.86 -22.14,12.96 -33.966,24.246 -9.693,9.18 -20.25,15.093 -31.644,17.82 -11.799,3.294 -19.926,11.286 -24.246,24.273 -5.373,17.307 -10.557,28.161 -15.39,32.481 -14.553,11.826 0,19.413 43.767,22.68 17.172,11.799 96.93,27.513 238.869,46.926 148.5,19.926 240.381,24.057 275.481,12.123 z"
           style="fill:#57390d;fill-rule:evenodd"
           id="path788" /><path
           inkscape:connector-curvature="0"
           d="m 258.78863,68.94015 c 18.873,-3.807 33.426,-9.504 43.659,-17.091 6.534,-4.86 13.824,-12.663 21.924,-23.409 5.913,-7.614 5.4,-14.877 -1.566,-21.951 -3.807,-3.267 -14.337,-9.477 -31.644,-18.549 -8.64,-4.428 -21.951,-9.18 -39.771,-14.661 -17.172,-5.373 -29.322,-9.909 -36.369,-13.716 -7.074,-3.807 -12.663,-13.284 -16.983,-28.377 -4.86,-17.28 -11.394,-28.89 -19.521,-34.911 -14.553,-11.799 -41.013,-26.163 -79.299,-42.822 -10.341,-4.833 -23.004,-5.994 -38.097,-3.267 -3.78,0.54 -16.227,3.807 -37.314,9.72 -9.18,2.727 -23.517,2.727 -42.93,0 -25.326,-2.646 -39.339,-4.023 -42.093,-4.023 -8.64,0 -21.627,3.159 -38.907,9.693 -22.167,8.667 -38.826,14.364 -50.22,16.983 -16.119,3.807 -28.566,11.097 -37.233,21.843 -6.534,11.394 -11.367,18.144 -14.553,20.358 -1.566,1.053 -11.907,5.589 -30.78,13.716 -16.767,7.047 -26.703,12.636 -29.97,16.983 -2.214,3.267 -3.78,8.964 -4.941,17.064 -0.54,6.966 -3.159,12.15 -8.019,15.417 -7.074,4.833 -8.451,9.18 -4.104,12.852 4.833,3.267 11.583,3.078 20.25,-0.729 4.833,-2.214 12.744,2.727 23.517,14.553 12.447,14.04 25.623,21.303 39.636,21.924 69.201,6.966 139.86,13.5 212.22,19.413 144.801,12.339 225.801,16.659 243.108,12.987 z"
           style="fill:#80561c;fill-rule:evenodd"
           id="path790" /><path
           sodipodi:nodetypes="ccscccscccccccccccccccccccccccccccccccccccccccccccccccccccccccccccccc"
           id="path48617"
           style="fill:#ececec;fill-rule:evenodd"
           d="m -103.89097,-65.597736 c 3.68824,-8.170388 7.297452,-14.497625 11.01204,-18.899181 1.027439,-1.733113 5.242574,-6.354746 12.645404,-14.084981 4.215135,-4.401552 5.558709,-13.974932 4.030723,-28.912712 -1.132817,-8.80312 -3.003284,-20.85238 -5.558709,-36.31284 -0.526892,-9.35331 0,-15.5705 1.527986,-18.92669 1.027439,-2.77848 4.030723,-4.18148 8.746405,-4.18148 8.957161,0 11.828721,9.68342 8.641026,28.91272 -1.027439,7.73023 -0.816682,16.23074 0.843027,25.58405 1.527986,8.80311 2.555425,14.60766 3.082318,17.38614 0.500547,3.76883 5.347951,6.35475 14.305112,7.42763 8.43027,1.07288 13.672844,0.74276 15.727722,-0.8528 0.526892,-0.5502 0.526892,-4.62164 0,-12.37938 -1.027439,-7.18004 -0.184412,-12.65447 2.371013,-16.53334 3.187696,-4.40156 6.586148,-4.62164 10.300737,-0.74277 3.714588,3.74133 5.031818,7.40012 4.004379,10.61876 l -4.715682,13.23217 c -1.132818,6.10716 0.711303,10.72879 5.45333,14.05747 4.8210605,3.878869 10.80128291,6.354747 18.2041135,7.427626 8.4302725,0.550194 15.0164205,1.402996 19.7584465,2.475875 18.941763,3.328677 32.719984,2.778482 41.071219,-1.623074 4.82106,-2.778482 10.063634,-3.851363 15.833099,-3.328678 8.957162,1.18292 17.598191,0.852803 26.028451,-0.742763 11.11743,-2.255797 18.5466,-6.657356 22.12946,-13.232176 1.65972,-3.85136 2.68715,-11.6091 3.18769,-23.19069 0.5269,-8.83063 3.71459,-15.04782 9.48406,-18.9267 5.8485,-3.87887 12.6454,-4.40155 20.57513,-1.62307 5.76947,1.62307 7.11304,4.95175 3.899,9.79346 -4.10976,7.73024 -5.74312,14.60767 -4.71569,20.74234 1.63337,7.0975 0.50055,15.04782 -3.08231,23.850922 -1.65971,3.328677 0,7.510157 4.71568,12.461907 5.76947,4.951751 9.9846,8.803112 12.67175,11.499065 3.08231,2.805992 4.92644,8.500505 5.45333,17.303617 0.50055,10.536225 1.34357,16.753423 2.37101,19.00922 5.8485,10.97638 19.0208,18.706613 39.51689,23.108169 8.43027,2.145758 16.64979,6.6573536 24.47413,13.2321777 8.45661,7.1800382 13.1723,10.9488702 14.30512,11.4990647 3.08231,1.1829186 6.08559,-1.6230735 8.64101,-8.170388 2.16026,-6.6573533 3.71459,-14.4150964 4.74203,-23.1081694 2.16026,-13.754862 6.58616,-15.157858 13.48844,-4.181478 2.05487,3.328677 2.87155,7.400116 2.37101,12.351867 -2.16025,6.1346686 -3.39846,11.0589092 -4.03073,14.9377804 -0.50054,3.2186378 -2.05487,8.472995 -4.71568,15.6805426 -2.58177,5.474436 -3.71459,9.02319 -3.10865,10.646264 1.02743,2.778482 -1.13282,6.134668 -6.3754,9.875991 -4.71569,3.328677 -11.30183,6.134669 -19.75845,8.280427 -7.92972,1.733113 -13.67284,4.951751 -17.38743,9.875991 -2.05487,2.805992 -5.03181,8.610544 -8.64102,17.413656 -183.911597,40.081674 -280.620666,-0.856897 -328.462442,6.213102 -29.532288,4.951751 3.690298,9.29438 -32.744268,-4.460483 -18.41487,-7.097509 -16.61209,17.651508 -38.241,6.042404 -14.27877,-5.474438 -22.94614,-15.350429 -26.13383,-29.655486 2.68714,0 6.08559,1.95319 10.30073,5.694513 3.1877,3.328677 7.92972,4.731673 14.19974,4.208988 6.90228,-0.550195 11.61796,-3.548755 14.30511,-9.0507 1.55433,-3.328676 2.05487,-10.206107 1.55433,-20.632293 -0.5269,-10.508715 -106.1577,3.704045 -102.46946,-1.330235 3.71459,-5.474435 10.80129,-10.646263 21.41815,-15.708053 12.54003,-5.9971196 20.46975,-10.3986756 23.65745,-13.2046675 5.24258,-4.401556 6.0856,-8.1703882 2.37101,-11.4990645 l -10.30073,-9.133229 c -2.55543,-4.951751 -3.68825,-10.948871 -3.1877,-18.04638 0.63227,-8.830621 3.50383,-14.084979 8.74641,-15.708053 6.7969,-2.778482 11.32817,-1.92568 13.38305,2.475876 2.16026,5.474435 3.71459,9.573384 4.8474,12.351866 2.05488,7.097509 11.01204,9.133229 26.84514,5.804552 13.69919,0 25.52791,-1.375486 35.51251,-4.181478 7.92973,-2.145759 13.98899,-5.144319 18.20412,-9.02319 4.74202,-3.878871 8.95715,-10.426186 12.67174,-19.889531 z"
           inkscape:connector-curvature="0" /><path
           sodipodi:nodetypes="ccscccscccccccccccccccccccccccccccccccccccccccccccccccccccccccccccccc"
           inkscape:connector-curvature="0"
           d="m 115.33763,-100.45785 c -3.78,-8.019 -7.479,-14.229 -11.286,-18.549 -1.053,-1.701 -5.373,-6.237 -12.96,-13.824 -4.32,-4.32 -5.697,-13.716 -4.131,-28.377 1.161,-8.64 3.078,-20.466 5.697,-35.64 0.54,-9.18 0,-15.282 -1.566,-18.576 -1.053,-2.727 -4.131,-4.104 -8.964,-4.104 -9.18,0 -12.123,9.504 -8.856,28.377 1.053,7.587 0.837,15.93 -0.864,25.11 -1.566,8.64 -2.619,14.337 -3.159,17.064 -0.513,3.699 -5.481,6.237 -14.661,7.29 -8.64,1.053 -14.013,0.729 -16.119,-0.837 -0.54,-0.54 -0.54,-4.536 0,-12.15 1.053,-7.047 0.189,-12.42 -2.43,-16.227 -3.267,-4.32 -6.75,-4.536 -10.557,-0.729 -3.807,3.672 -5.157,7.263 -4.104,10.422 l 4.833,12.987 c 1.161,5.994 -0.729,10.53 -5.589,13.797 -4.941,3.807 -11.07,6.237 -18.657,7.29 -8.64,0.54 -15.39,1.377 -20.25,2.43 -19.413,3.267 -33.534,2.727 -42.093,-1.593 -4.941,-2.727 -10.314,-3.78 -16.227,-3.267 -9.18,1.161 -18.036,0.837 -26.676,-0.729 -11.394,-2.214 -19.008,-6.534 -22.68,-12.987 -1.701,-3.78 -2.754,-11.394 -3.267,-22.761 -0.54,-8.667 -3.807,-14.769 -9.72,-18.576 -5.994,-3.807 -12.96,-4.32 -21.087,-1.593 -5.913,1.593 -7.29,4.86 -3.996,9.612 4.212,7.587 5.886,14.337 4.833,20.358 -1.674,6.966 -0.513,14.769 3.159,23.409 1.701,3.267 0,7.371 -4.833,12.231 -5.913,4.86 -10.233,8.64 -12.987,11.286 -3.159,2.754 -5.049,8.343 -5.589,16.983 -0.513,10.341 -1.377,16.443 -2.43,18.657 -5.994,10.773 -15.20292,15.78535 -36.20892,20.10535 -8.64,2.106 -21.35508,9.10865 -29.37408,15.56165 -8.667,7.047 -13.5,10.746 -14.661,11.286 -3.159,1.161 -6.237,-1.593 -8.856,-8.019 -2.214,-6.534 -3.807,-14.148 -4.86,-22.68 -2.214,-13.5 -6.75,-14.877 -13.824,-4.104 -2.106,3.267 -2.943,7.263 -2.43,12.123 2.214,6.021 3.483,10.854 4.131,14.661 0.513,3.159 2.106,8.316 4.833,15.39 2.646,5.373 3.807,8.856 3.186,10.449 -1.053,2.727 1.161,6.021 6.534,9.693 4.833,3.267 11.583,6.021 20.25,8.127 8.127,1.701 14.013,4.86 17.82,9.693 2.106,2.754 5.157,8.451 8.856,17.091 188.487,39.339 307.341,62.667 356.373,69.606 30.267,4.86 64.017,0.54 101.358,-12.96 18.873,-6.966 39.339,-16.146 61.506,-27.54 14.634,-5.373 23.517,-15.066 26.784,-29.106 -2.754,0 -6.237,1.917 -10.557,5.589 -3.267,3.267 -8.127,4.644 -14.553,4.131 -7.074,-0.54 -11.907,-3.483 -14.661,-8.883 -1.593,-3.267 -2.106,-10.017 -1.593,-20.25 0.54,-10.314 -1.053,-17.82 -4.833,-22.761 -3.807,-5.373 -11.07,-10.449 -21.951,-15.417 -12.852,-5.886 -20.979,-10.206 -24.246,-12.96 -5.373,-4.32 -6.237,-8.019 -2.43,-11.286 l 10.557,-8.964 c 2.619,-4.86 3.78,-10.746 3.267,-17.712 -0.648,-8.667 -3.591,-13.824 -8.964,-15.417 -6.966,-2.727 -11.61,-1.89 -13.716,2.43 -2.214,5.373 -3.807,9.396 -4.968,12.123 -2.106,6.966 -11.286,8.964 -27.513,5.697 -14.04,0 -26.163,-1.35 -36.396,-4.104 -8.127,-2.106 -14.337,-5.049 -18.657,-8.856 -4.86,-3.807 -9.18,-10.233 -12.987,-19.521 z"
           style="fill:#d43f00;fill-rule:evenodd"
           id="path792" /><path
           inkscape:connector-curvature="0"
           d="m 113.77163,-82.52985 c -8.127,-12.447 -18.36,-24.894 -30.807,-37.314 -5.373,-5.4 -10.746,-8.667 -16.254,-9.72 -6.426,0.54 -11.799,0.837 -16.119,0.837 -9.18,0 -21.303,2.646 -36.504,8.019 -17.28,7.074 -34.263,10.017 -51.03,8.964 -9.18,-1.053 -16.146,-1.566 -21.006,-1.566 -7.587,0 -14.877,1.566 -21.924,4.833 l -20.25,7.29 c -3.699,-1.701 -9.909,-5.373 -18.576,-11.394 -5.913,-4.32 -11.907,-6.21 -17.82,-5.697 -7.074,0 -12.96,2.214 -17.82,6.534 -2.754,2.106 -6.75,6.75 -12.123,13.824 -2.754,3.699 -5.481,10.449 -8.127,20.25 -2.214,9.18 -4.104,14.553 -5.697,16.146 -3.267,2.727 -9.504,5.994 -18.657,9.693 -10.233,5.481 -19.737,8.964 -28.377,10.557 -7.506,1.566 -16.47,6.21 -26.676,13.797 -12.447,9.18 -18.9,13.716 -19.413,13.716 -3.807,1.701 -5.373,4.131 -4.86,7.29 1.053,2.727 2.646,4.941 4.86,6.534 l 54.297,23.517 c 309.366,35.019 473.04,51.57 490.86,49.356 11.286,-1.566 16.983,-4.86 16.983,-9.693 0,-2.754 -1.89,-7.29 -5.697,-13.824 -1.053,-2.646 -3.267,-6.426 -6.426,-11.286 -2.754,-5.373 -4.104,-11.61 -4.104,-18.657 0.513,-14.04 -8.667,-24.57 -27.54,-31.536 -10.233,-3.807 -16.983,-7.074 -20.25,-9.72 -5.373,-4.32 -10.233,-11.907 -14.553,-22.68 -4.32,-9.801 -14.04,-15.39 -29.214,-17.064 -16.767,0 -28.053,-0.216 -33.966,-0.756 -8.64,-1.674 -15.39,-3.78 -20.25,-6.534 -4.32,-2.727 -8.64,-7.263 -12.96,-13.716 z"
           style="fill:#eb4600;fill-rule:evenodd"
           id="path794" /><path
           inkscape:connector-curvature="0"
           d="m -150.34237,-140.09385 c 2.754,0.513 5.184,-1.08 7.29,-4.86 2.727,-3.807 3.807,-7.803 3.267,-12.123 -0.54,-3.807 -2.943,-6.237 -7.29,-7.29 -3.78,-0.513 -6.21,1.053 -7.263,4.86 -1.161,3.267 -1.161,7.263 0,12.123 1.053,3.807 2.43,6.21 3.996,7.29 z"
           style="fill:#eb4600;fill-rule:evenodd"
           id="path796" /><path
           inkscape:connector-curvature="0"
           d="m -151.07137,-171.62985 c 6.426,-5.4 6.966,-8.667 1.593,-9.72 -6.561,-1.674 -10.341,-1.161 -11.394,1.593 -1.053,1.053 -0.216,3.159 2.43,6.426 2.727,2.754 5.157,3.267 7.371,1.701 z"
           style="fill:#eb4600;fill-rule:evenodd"
           id="path798" /><path
           inkscape:connector-curvature="0"
           d="m -282.37237,-34.01085 c 3.78,-8.64 4.104,-15.066 0.837,-19.413 -4.32,-4.32 -6.75,-4.32 -7.29,0 -0.513,2.754 0.216,7.074 2.43,12.987 1.593,5.913 2.97,8.127 4.023,6.426 z"
           style="fill:#eb4600;fill-rule:evenodd"
           id="path800" /><path
           inkscape:connector-curvature="0"
           d="m 28.64063,-154.67385 c 4.428,-2.214 5.697,-5.67 4.131,-10.53 -2.214,-4.86 -4.347,-5.697 -6.561,-2.43 -1.566,2.214 -2.106,5.157 -1.566,8.964 1.053,3.159 2.43,4.536 3.996,3.996 z"
           style="fill:#eb4600;fill-rule:evenodd"
           id="path802" /><path
           inkscape:connector-curvature="0"
           d="m 78.96863,-185.45385 c 4.212,-6.426 6.426,-12.987 6.426,-19.413 0,-6.021 -2.214,-7.587 -6.426,-4.86 -3.807,2.646 -5.184,8.019 -4.131,16.146 0.54,8.64 1.917,11.394 4.131,8.127 z"
           style="fill:#eb4600;fill-rule:evenodd"
           id="path804" /><path
           inkscape:connector-curvature="0"
           d="m 224.71463,-60.68685 c 2.754,-1.053 4.32,-4.32 4.86,-9.693 1.053,-6.021 -0.216,-9.828 -4.023,-11.394 -3.78,-1.593 -6.75,-0.54 -8.964,3.267 -1.566,3.78 -2.43,7.587 -2.43,11.286 0,2.727 1.377,4.833 4.131,6.534 2.106,1.053 4.32,1.053 6.426,0 z"
           style="fill:#eb4600;fill-rule:evenodd"
           id="path806" /><path
           inkscape:connector-curvature="0"
           d="m 301.71863,55.11615 c 4.833,-1.593 7.479,-2.943 7.992,-3.996 0,-1.161 -0.513,-2.43 -1.566,-4.131 -0.54,-1.566 -2.106,-1.566 -4.86,0 -4.32,2.214 -7.074,3.267 -8.127,3.267 -2.619,0.54 -2.619,1.593 0,3.159 2.214,1.701 4.347,2.241 6.561,1.701 z"
           style="fill:#eb4600;fill-rule:evenodd"
           id="path808" /><path
           inkscape:connector-curvature="0"
           d="m 264.37763,79.47015 c 11.394,-4.32 18.333,-7.371 21.087,-8.964 3.807,-2.727 4.86,-6.426 3.267,-11.286 -2.214,-6.534 -18.873,-19.197 -50.193,-38.07 -4.32,-21.087 -11.718,-35.964 -21.951,-44.604 -17.28,-16.254 -45.549,-31.023 -84.996,-44.523 -25.947,-9.153 -48.627,-15.174 -68.04,-17.82 -21.627,-2.727 -49.14,-2.943 -82.674,-0.837 -28.593,2.214 -55.593,8.856 -81,20.25 l -29.97,16.254 c -28.566,0 -58.32,4.32 -89.1,12.96 -19.413,5.913 -34.29,13.716 -44.523,23.409 l -9.693,13.824 c 12.339,12.447 26.676,24.354 42.93,35.64 316.386,33.966 481.356,48.519 494.856,43.767 z"
           style="fill:#852700;fill-rule:evenodd"
           id="path810" /><path
           inkscape:connector-curvature="0"
           d="m -152.74537,-71.24385 c 16.767,-7.047 23.814,-15.39 21.087,-25.083 -2.754,-9.72 -9.72,-12.15 -21.087,-7.29 -9.18,3.807 -12.663,10.557 -10.557,20.25 1.674,10.233 5.157,14.229 10.557,12.123 z"
           style="fill:#ff7f47;fill-rule:evenodd"
           id="path812" /><path
           inkscape:connector-curvature="0"
           d="m 45.73163,-99.59385 c 17.82,-1.08 25.11,-5.616 21.843,-13.716 -3.186,-8.127 -10.557,-11.07 -21.843,-8.964 -9.693,2.214 -14.337,6.534 -13.824,12.96 0.54,7.074 5.184,10.233 13.824,9.72 z"
           style="fill:#ff7f47;fill-rule:evenodd"
           id="path814" /><path
           inkscape:connector-curvature="0"
           d="m 254.65763,15.45315 c 13.5,-5.373 11.394,-12.231 -6.426,-20.25 -7.074,-2.727 -8.964,0.54 -5.697,9.72 3.267,9.153 7.29,12.636 12.123,10.53 z"
           style="fill:#ff7f47;fill-rule:evenodd"
           id="path816" /><g
           transform="matrix(27,0,0,27,-416.53537,-256.24785)"
           id="g818"><g
             id="g820"><g
               id="g826"><path
                 inkscape:connector-curvature="0"
                 d="m 10.73,8.173 c 0.2,0.859 0.532,1.8 0.989,2.82 0.902,2.059 2.011,3.5 3.332,4.316 1.48,0.942 3.308,0.821 5.488,-0.359 2.082,-1.117 3.231,-2.41 3.449,-3.867 C 24.289,8.981 22.199,7.532 17.719,6.731 15.98,6.43 14.398,6.493 12.98,6.911 11.879,7.231 11.129,7.653 10.73,8.173 Z"
                 style="fill:url(#linearGradient828);fill-rule:evenodd"
                 id="path834" /></g></g></g><path
           inkscape:connector-curvature="0"
           d="m 214.15763,77.79615 4.86,-4.131 c 6.534,-10.206 10.557,-20.439 12.231,-30.672 8.019,-56.754 -48.411,-95.877 -169.263,-117.504 -47.061,-8.127 -89.667,-6.426 -128.061,4.86 -29.619,8.64 -49.977,19.926 -60.75,34.074 4.86,21.492 12.987,45.333 24.273,71.172 22.68,52.947 50.193,91.341 82.674,115.074 8.019,2.754 12.447,2.754 12.987,0 0.513,-2.106 2.43,-9.504 5.697,-21.843 14.553,-35.1 11.286,-64.314 -9.801,-87.534 -10.233,-11.907 -22.167,-19.926 -35.667,-24.246 l -4.833,-33.237 c 8.1,-20.547 39.744,-27 94.797,-19.386 71.82,9.153 121.716,30.672 149.877,64.746 14.04,17.307 20.979,33.534 20.979,48.627 z"
           style="fill:#c98000;fill-rule:evenodd"
           id="path836" /><path
           inkscape:connector-curvature="0"
           d="m -218.35537,99.61215 c 30.267,13.5 62.64,25.434 97.227,35.667 69.633,21.087 114.966,24.57 136.053,10.53 26.487,-17.82 24.057,-50.517 -7.263,-97.983 -31.86,-48.6 -69.093,-70.767 -111.807,-66.42 -72.333,8.1 -114.426,13.797 -126.333,17.064 -32.4,8.559 -48.843,25.839 -49.464,51.786 -0.54,23.22 5.994,36.18 19.494,38.934 25.326,4.833 39.339,8.316 42.093,10.422 z"
           style="fill:#ede2ad;fill-rule:evenodd"
           id="path838" /><g
           transform="matrix(27,0,0,27,-416.53537,-256.24785)"
           id="g840"><g
             id="g842"><g
               id="g848"><path
                 inkscape:connector-curvature="0"
                 d="m 6.77,14.473 c 1.121,0.278 2.32,0.5 3.601,0.661 2.578,0.339 4.258,0.25 5.039,-0.274 0.961,-0.66 1.059,-1.711 0.301,-3.148 C 14.949,10.27 13.699,9.173 11.961,8.411 10.301,7.692 8.621,7.712 6.922,8.469 5.32,9.212 4.508,10.161 4.488,11.321 c -0.019,0.641 0.094,1.172 0.332,1.59 0.18,0.301 0.469,0.59 0.871,0.871 0.481,0.281 0.84,0.512 1.079,0.691 z"
                 style="fill:url(#linearGradient850);fill-rule:evenodd"
                 id="path856" /></g></g></g><g
           transform="matrix(27,0,0,27,-416.53537,-256.24785)"
           id="g858"><g
             id="g860"><g
               id="g866"><path
                 inkscape:connector-curvature="0"
                 d="M 11.961,8.411 C 10.301,7.692 8.621,7.712 6.922,8.473 5.32,9.212 4.508,10.161 4.488,11.321 c 0,0.359 0.02,0.613 0.063,0.75 0.301,-1.918 1.859,-2.879 4.679,-2.879 1.719,0.02 3.282,0.488 4.68,1.41 1.36,0.879 2.121,1.891 2.281,3.032 0.02,-1.2 -0.55,-2.36 -1.711,-3.481 C 13.66,9.372 12.82,8.794 11.961,8.411 Z"
                 style="fill:url(#linearGradient868);fill-rule:evenodd"
                 id="path874" /></g></g></g><path
           inkscape:connector-curvature="0"
           d="m -84.73237,237.36615 c 15.714,0 34.074,-14.553 55.161,-43.767 10.746,-14.553 19.629,-29.106 26.676,-43.659 5.4,0 6.75,-1.377 4.023,-4.131 -5.373,-4.32 -27.756,-11.799 -67.203,-22.653 -49.653,-14.04 -96.714,-20.25 -140.886,-18.576 -22.167,0.54 -39.447,2.646 -51.894,6.426 -6.966,5.4 -10.773,12.987 -11.286,22.68 -1.161,19.413 14.553,39.663 46.926,60.75 21.087,14.04 50.517,25.434 88.29,33.966 18.873,4.428 35.64,7.371 50.193,8.964 z"
           style="fill:#ede2ad;fill-rule:evenodd"
           id="path876" /><g
           transform="matrix(27,0,0,27,-416.53537,-256.24785)"
           id="g878"><g
             id="g880"><g
               id="g886"><path
                 inkscape:connector-curvature="0"
                 d="m 11.988,18.313 c 0.582,0.02 1.602,-0.402 3.063,-1.261 0.738,-0.418 1.41,-0.84 2.008,-1.258 -0.457,-0.321 -1.84,-0.801 -4.137,-1.442 C 11.082,13.833 9.262,13.532 7.461,13.45 6.559,13.411 5.84,13.423 5.301,13.481 5.082,13.704 4.98,14.001 5,14.384 c 0.039,0.777 0.66,1.57 1.859,2.367 1.282,0.843 2.993,1.363 5.129,1.562 z"
                 style="fill:url(#linearGradient888);fill-rule:evenodd"
                 id="path894" /></g></g></g><path
           inkscape:connector-curvature="0"
           d="m -7.72837,143.40615 c -31.86,17.82 -57.267,34.263 -76.167,49.464 -16.227,12.96 -22.464,24.57 -18.657,34.803 4.32,12.447 24.057,23.193 59.157,32.373 51.786,12.96 100.197,11.394 145.017,-4.86 22.68,-8.64 40.203,-18.36 52.65,-29.214 -12.447,0 -26.487,-1.269 -42.093,-3.996 -31.32,-4.32 -54.837,-12.15 -70.551,-23.517 -25.839,-17.847 -42.417,-36.18 -49.356,-55.053 z"
           style="fill:#ede2ad;fill-rule:evenodd"
           id="path896" /><g
           transform="matrix(27,0,0,27,-416.53537,-256.24785)"
           id="g898"><g
             id="g900"><g
               id="g906"><path
                 inkscape:connector-curvature="0"
                 d="m 15.41,14.864 c -1.301,0.797 -2.301,1.477 -3,2.039 -1.301,1.078 -0.801,1.91 1.5,2.488 1.922,0.481 3.711,0.422 5.371,-0.179 0.84,-0.321 1.489,-0.68 1.949,-1.078 -0.46,0 -0.98,-0.051 -1.558,-0.153 -1.16,-0.16 -2.031,-0.449 -2.61,-0.871 -0.601,-0.418 -1.05,-0.918 -1.351,-1.5 L 15.41,14.864 Z"
                 style="fill:url(#linearGradient908);fill-rule:evenodd"
                 id="path914" /></g></g></g><path
           inkscape:connector-curvature="0"
           d="m 168.82463,156.36615 c -50.733,6.426 -95.553,7.074 -134.487,1.593 l -42.93,-9.72 c -1.053,6.021 0.324,13.284 4.131,21.951 6.966,17.712 22.869,33.75 47.763,47.763 40.5,23.733 82.053,28.917 124.659,15.417 43.794,-14.04 77.22,-42.93 100.521,-86.697 17.82,-33.561 18.576,-58.644 2.43,-75.303 l -29.943,-14.58 c 1.053,15.093 -1.161,30.483 -6.561,46.116 -10.746,31.32 -32.697,49.14 -65.583,53.46 z"
           style="fill:#ede2ad;fill-rule:evenodd"
           id="path916" /><g
           transform="matrix(27,0,0,27,-416.53537,-256.24785)"
           id="g918"><g
             id="g920"><g
               id="g926"><path
                 inkscape:connector-curvature="0"
                 d="m 20.93,14.501 c -1.52,0.679 -2.891,0.941 -4.11,0.781 l -1.41,-0.418 c -0.039,0.219 0.012,0.488 0.149,0.809 0.261,0.64 0.851,1.23 1.773,1.769 1.539,0.879 3.148,1.149 4.828,0.809 1.781,-0.379 3.09,-1.36 3.93,-2.938 0.66,-1.242 0.512,-2.429 -0.449,-3.57 l -1.653,-1.32 c -0.078,0.48 -0.269,1.007 -0.57,1.589 -0.578,1.18 -1.406,2.008 -2.488,2.489 z"
                 style="fill:url(#linearGradient928);fill-rule:evenodd"
                 id="path934" /></g></g></g><path
           inkscape:connector-curvature="0"
           d="m 231.14063,25.17315 c -2.619,14.013 -8.316,29.106 -16.983,45.333 25.434,10.773 42.417,26.163 51.057,46.197 11.286,25.947 6.21,54.837 -15.39,86.697 15.066,-12.447 27.837,-27.837 38.07,-46.197 17.82,-33.534 13.824,-65.583 -12.123,-96.39 l -44.631,-35.64 z"
           style="fill:#c98000;fill-rule:evenodd"
           id="path936" /><path
           inkscape:connector-curvature="0"
           d="m 154.27163,133.68615 c -44.307,17.307 -83.43,24.273 -117.504,21.087 l -37.233,-9.693 c -5.373,-2.754 -7.803,-2.214 -7.263,1.593 25.407,12.447 55.053,17.28 89.1,14.553 32.4,-3.186 62.667,-12.987 90.72,-29.106 14.013,-8.127 25.299,-19.737 33.966,-34.83 7.371,-13.176 11.691,-26.46 12.96,-40.176 -1.485,13.284 -9.396,27.945 -23.409,44.199 -14.661,16.767 -28.377,27.513 -41.337,32.373 z"
           style="fill:#ede2ad;fill-rule:evenodd"
           id="path938" /><path
           inkscape:connector-curvature="0"
           d="m -4.46137,153.93615 c 8.019,1.593 15.606,2.43 22.68,2.43 6.426,0 7.992,-0.837 4.833,-2.43 -8.64,-3.267 -12.447,-7.263 -11.394,-12.123 0.54,-2.214 -1.053,-2.754 -4.833,-1.701 -6.966,2.214 -17.307,1.377 -30.807,-2.322 l -1.593,-0.837 c 2.862,1.809 5.292,4.212 7.29,7.29 l 3.996,7.263 c 2.214,0 5.508,0.864 9.828,2.43 z"
           style="fill:#ede2ad;fill-rule:evenodd"
           id="path940" /><path
           inkscape:connector-curvature="0"
           d="m -164.89537,222.81315 c 6.453,0 9.72,-2.214 9.72,-6.534 0,-3.699 -2.97,-6.966 -8.856,-9.72 -10.341,-5.373 -17.631,-4.536 -21.951,2.43 -1.593,2.754 -0.513,5.481 3.267,8.127 4.86,3.267 10.773,5.157 17.82,5.697 z"
           style="fill:#a88a43;fill-rule:evenodd"
           id="path942" /><path
           inkscape:connector-curvature="0"
           d="m -167.32537,224.40615 c 6.453,0.513 9.72,-1.377 9.72,-5.616 0,-3.78 -2.754,-7.047 -8.127,-9.801 -10.746,-5.373 -18.36,-4.536 -22.68,2.43 -1.566,2.214 -0.216,4.86 4.131,8.127 4.833,3.267 10.422,4.86 16.956,4.86 z"
           style="fill:#ede2ad;fill-rule:evenodd"
           id="path944" /><path
           inkscape:connector-curvature="0"
           d="m -170.59237,221.97615 c 6.561,0 7.614,-1.917 3.267,-5.697 -2.106,-2.106 -4.833,-3.483 -8.1,-4.023 -3.807,-1.053 -6.237,-0.513 -7.29,1.593 -1.053,2.214 -0.324,4.104 2.43,5.697 2.754,2.214 5.913,2.943 9.693,2.43 z"
           style="fill:#ffffff;fill-rule:evenodd"
           id="path946" /><path
           inkscape:connector-curvature="0"
           d="m -119.53537,207.42315 c 12.447,-0.54 16.983,-3.267 13.824,-8.127 -3.807,-4.86 -10.557,-7.29 -20.25,-7.29 -8.127,0 -10.557,2.754 -7.398,8.127 3.807,5.373 8.451,7.803 13.824,7.29 z"
           style="fill:#a88a43;fill-rule:evenodd"
           id="path948" /><path
           inkscape:connector-curvature="0"
           d="m -189.97837,174.18615 c 8.64,1.593 11.799,-0.324 9.693,-5.697 -2.214,-5.373 -5.913,-7.587 -11.286,-6.426 -4.968,0.513 -7.074,2.43 -6.534,5.697 1.053,3.159 3.78,5.373 8.127,6.426 z"
           style="fill:#a88a43;fill-rule:evenodd"
           id="path950" /><path
           inkscape:connector-curvature="0"
           d="m -61.21537,106.90215 c 9.18,-1.593 11.394,-4.212 6.426,-8.019 -4.833,-3.807 -10.206,-5.157 -16.119,-4.104 -5.373,1.161 -7.074,3.78 -4.86,8.127 2.106,4.32 6.966,5.67 14.553,3.996 z"
           style="fill:#a88a43;fill-rule:evenodd"
           id="path952" /><path
           inkscape:connector-curvature="0"
           d="m -133.35937,55.11615 c 7.614,1.674 12.447,0.54 14.661,-3.267 2.106,-4.32 -1.053,-6.129 -9.693,-5.589 -7.587,0 -11.07,1.269 -10.557,3.996 0,2.754 1.917,4.32 5.589,4.86 z"
           style="fill:#a88a43;fill-rule:evenodd"
           id="path954" /><path
           inkscape:connector-curvature="0"
           d="m 100.78463,127.98915 c 12.447,0 18.873,-2.619 19.413,-8.019 0,-5.994 -5.373,-8.424 -16.146,-7.371 -9.18,1.161 -13.5,3.807 -12.96,8.127 0.513,4.32 3.78,6.75 9.693,7.263 z"
           style="fill:#a88a43;fill-rule:evenodd"
           id="path956" /><path
           inkscape:connector-curvature="0"
           d="m 215.02163,203.29215 c 11.286,-2.619 15.39,-7.263 12.123,-13.716 -3.159,-5.886 -9.396,-6.75 -18.576,-2.403 -8.64,3.78 -11.07,7.803 -7.263,12.123 3.159,4.32 7.695,5.697 13.716,3.996 z"
           style="fill:#a88a43;fill-rule:evenodd"
           id="path958" /><path
           inkscape:connector-curvature="0"
           d="m 121.03463,225.24315 c -1.053,-8.127 -6.426,-11.61 -16.146,-10.557 -9.801,0.54 -13.797,3.483 -12.231,8.856 1.053,4.32 6.237,6.75 15.417,7.398 9.18,1.053 13.5,-0.864 12.96,-5.697 z"
           style="fill:#a88a43;fill-rule:evenodd"
           id="path960" /><path
           inkscape:connector-curvature="0"
           d="m 142.87763,180.61215 c 15.174,-3.159 18.333,-7.992 9.801,-14.553 -8.127,-6.426 -17.091,-7.479 -26.784,-3.267 -8.64,3.807 -10.557,8.451 -5.697,13.824 5.481,4.86 12.96,6.21 22.68,3.996 z"
           style="fill:#a88a43;fill-rule:evenodd"
           id="path962" /><path
           inkscape:connector-curvature="0"
           d="m 31.90763,267.30915 c 12.987,0.54 17.631,-3.159 13.824,-11.286 -3.807,-8.64 -11.07,-12.231 -21.843,-10.53 -9.801,1.053 -12.744,4.833 -8.964,11.286 3.807,6.534 9.396,10.017 16.983,10.53 z"
           style="fill:#a88a43;fill-rule:evenodd"
           id="path964" /><path
           inkscape:connector-curvature="0"
           d="m -181.12237,98.04615 c 14.013,0 18.333,-3.807 12.96,-11.286 -5.913,-7.587 -14.013,-9.18 -24.246,-4.968 -9.18,3.807 -11.61,7.614 -7.29,11.394 3.699,2.754 9.909,4.32 18.576,4.86 z"
           style="fill:#a88a43;fill-rule:evenodd"
           id="path966" /><path
           inkscape:connector-curvature="0"
           d="m -41.80237,226.80915 c 12.96,-2.106 15.93,-7.803 8.964,-16.983 -7.074,-8.64 -14.337,-10.206 -21.951,-4.833 -6.939,4.32 -8.316,9.369 -3.996,15.39 4.32,5.373 10.017,7.587 16.983,6.426 z"
           style="fill:#a88a43;fill-rule:evenodd"
           id="path968" /><path
           inkscape:connector-curvature="0"
           d="m -121.12837,208.98915 c 12.447,-0.513 16.983,-3.159 13.716,-8.019 -3.699,-4.941 -10.53,-7.371 -20.25,-7.371 -8.127,0 -10.449,2.727 -7.263,8.127 3.78,5.373 8.316,7.803 13.797,7.263 z"
           style="fill:#ede2ad;fill-rule:evenodd"
           id="path970" /><path
           inkscape:connector-curvature="0"
           d="m -191.57137,175.77915 c 8.532,1.674 11.826,-0.216 9.693,-5.589 -1.674,-5.4 -5.481,-7.614 -11.367,-6.534 -4.347,0.513 -6.237,2.403 -5.697,5.67 1.161,3.294 3.564,5.4 7.371,6.453 z"
           style="fill:#ede2ad;fill-rule:evenodd"
           id="path972" /><path
           inkscape:connector-curvature="0"
           d="m -62.78137,108.57615 c 9.153,-1.674 11.286,-4.32 6.426,-8.1 -4.32,-3.807 -9.396,-5.184 -15.39,-4.023 -5.4,1.053 -6.966,3.483 -4.86,7.29 2.106,4.32 6.75,5.913 13.824,4.833 z"
           style="fill:#ede2ad;fill-rule:evenodd"
           id="path974" /><path
           inkscape:connector-curvature="0"
           d="m -134.08837,56.79015 c 7.479,1.593 12.447,0.216 14.553,-4.104 1.593,-3.78 -1.89,-5.697 -10.557,-5.697 -8.019,0.54 -11.583,2.214 -10.422,4.86 0.405,2.727 2.619,4.32 6.426,4.941 z"
           style="fill:#ede2ad;fill-rule:evenodd"
           id="path976" /><path
           inkscape:connector-curvature="0"
           d="m 99.94763,128.82615 c 12.447,0.54 18.657,-2.214 18.657,-8.1 0.54,-5.4 -4.536,-7.614 -15.39,-6.453 -9.18,0.54 -13.5,3.186 -12.96,8.019 0.513,4.32 3.78,6.534 9.693,6.534 z"
           style="fill:#ede2ad;fill-rule:evenodd"
           id="path978" /><path
           inkscape:connector-curvature="0"
           d="m 213.42863,204.99315 c 11.286,-2.754 15.282,-7.29 12.123,-13.824 -3.267,-6.426 -9.477,-7.263 -18.657,-2.43 -8.64,3.807 -11.07,7.803 -7.29,12.231 3.267,4.239 7.803,5.589 13.824,4.023 z"
           style="fill:#ede2ad;fill-rule:evenodd"
           id="path980" /><path
           inkscape:connector-curvature="0"
           d="m 120.19763,226.80915 c -1.593,-7.587 -7.29,-11.07 -16.983,-10.53 -9.693,0.513 -13.824,3.267 -12.123,8.127 1.053,4.32 6.426,7.047 16.119,8.1 9.828,0.54 14.148,-1.35 12.987,-5.697 z"
           style="fill:#ede2ad;fill-rule:evenodd"
           id="path982" /><path
           inkscape:connector-curvature="0"
           d="m 141.28463,182.31315 c 15.606,-3.267 19.197,-8.127 10.557,-14.661 -8.127,-6.426 -17.307,-7.479 -27.54,-3.159 -8.64,3.78 -10.53,8.316 -5.697,13.797 5.4,4.752 12.987,6.129 22.68,4.023 z"
           style="fill:#ede2ad;fill-rule:evenodd"
           id="path984" /><path
           inkscape:connector-curvature="0"
           d="m 30.34163,268.90215 c 12.96,0.621 17.496,-3.159 13.716,-11.286 -3.699,-8.64 -10.773,-12.447 -21.006,-11.286 -9.693,1.593 -12.96,5.589 -9.693,12.123 3.699,6.453 9.396,10.017 16.983,10.449 z"
           style="fill:#ede2ad;fill-rule:evenodd"
           id="path986" /><path
           inkscape:connector-curvature="0"
           d="m -181.87837,99.61215 c 13.5,0 17.523,-3.672 12.15,-11.286 -5.4,-7.587 -13.5,-9.153 -24.381,-4.833 -9.693,3.78 -12.123,7.587 -7.263,11.286 3.78,2.727 10.341,4.32 19.494,4.833 z"
           style="fill:#ede2ad;fill-rule:evenodd"
           id="path988" /><path
           inkscape:connector-curvature="0"
           d="m -43.39537,228.40215 c 12.987,-2.106 15.93,-7.803 8.856,-16.983 -6.939,-8.64 -14.229,-10.233 -21.816,-4.86 -6.966,4.347 -8.127,9.504 -3.159,15.417 4.212,5.373 9.693,7.587 16.119,6.426 z"
           style="fill:#ede2ad;fill-rule:evenodd"
           id="path990" /><path
           inkscape:connector-curvature="0"
           d="m -123.53137,206.55915 c 3.672,0.54 5.886,0 6.426,-1.566 0,-1.701 -1.89,-2.43 -5.697,-2.43 -3.807,-0.54 -5.373,0 -4.86,1.593 0,1.053 1.377,1.89 4.131,2.403 z"
           style="fill:#ffffff;fill-rule:evenodd"
           id="path992" /><path
           inkscape:connector-curvature="0"
           d="m -189.14137,173.34915 c 2.646,0 3.483,-0.729 2.322,-2.43 -1.053,-1.593 -2.97,-2.106 -5.589,-1.593 -3.267,0 -4.32,0.54 -3.267,1.593 1.566,1.701 3.78,2.43 6.534,2.43 z"
           style="fill:#ffffff;fill-rule:evenodd"
           id="path994" /><path
           inkscape:connector-curvature="0"
           d="m -182.71537,96.45315 c 6.426,-0.513 7.074,-2.214 1.593,-4.833 -4.86,-2.754 -9.18,-3.591 -12.987,-2.43 -3.159,1.566 -3.159,3.483 0,5.589 3.807,2.214 7.614,2.727 11.394,1.674 z"
           style="fill:#ffffff;fill-rule:evenodd"
           id="path996" /><path
           inkscape:connector-curvature="0"
           d="m -65.21137,106.90215 c 4.833,-1.053 5.886,-2.322 3.159,-3.996 -3.159,-1.593 -6.237,-1.917 -8.856,-0.864 -2.214,0.648 -2.43,1.701 -0.837,3.267 2.214,1.593 4.32,2.214 6.534,1.593 z"
           style="fill:#ffffff;fill-rule:evenodd"
           id="path998" /><path
           inkscape:connector-curvature="0"
           d="m -130.82137,55.11615 c 3.699,-0.54 4.86,-1.377 3.159,-2.43 -1.566,-0.513 -3.78,-0.837 -6.426,-0.837 -2.214,0.513 -2.43,1.377 -0.837,2.43 1.053,1.161 2.43,1.377 4.104,0.837 z"
           style="fill:#ffffff;fill-rule:evenodd"
           id="path1000" /><path
           inkscape:connector-curvature="0"
           d="m 105.64463,125.55915 c 5.913,-2.106 6.534,-3.996 1.566,-5.697 -5.373,-1.053 -8.856,-0.189 -10.422,2.43 -2.214,2.214 -1.917,3.591 0.729,4.131 2.214,0.513 4.86,0.189 8.127,-0.864 z"
           style="fill:#ffffff;fill-rule:evenodd"
           id="path1002" /><path
           inkscape:connector-curvature="0"
           d="m 139.71863,179.88315 c 7.479,-1.593 7.992,-3.807 1.566,-6.534 -6.426,-3.159 -11.61,-3.807 -15.39,-1.593 -3.267,2.106 -2.754,4.32 1.566,6.534 4.428,2.133 8.451,2.646 12.258,1.593 z"
           style="fill:#ffffff;fill-rule:evenodd"
           id="path1004" /><path
           inkscape:connector-curvature="0"
           d="m 210.16163,200.13315 9.693,-8.127 c 1.593,-1.566 -0.297,-2.43 -5.697,-2.43 -5.373,0.54 -8.856,1.917 -10.53,4.131 -2.106,2.106 -2.106,3.996 0,5.589 1.674,1.674 3.78,1.89 6.534,0.837 z"
           style="fill:#ffffff;fill-rule:evenodd"
           id="path1006" /><path
           inkscape:connector-curvature="0"
           d="m 105.64463,229.23915 c 5.373,-1.053 6.21,-2.619 2.43,-4.833 -3.186,-2.754 -6.453,-3.294 -9.72,-1.593 -2.727,1.053 -2.727,2.43 0,3.996 2.754,2.214 5.184,2.97 7.29,2.43 z"
           style="fill:#ffffff;fill-rule:evenodd"
           id="path1008" /><path
           inkscape:connector-curvature="0"
           d="m 30.34163,266.58015 c 6.966,-0.621 8.316,-2.754 3.996,-6.534 -4.833,-4.32 -8.64,-5.373 -11.286,-3.267 -2.214,2.214 -2.43,4.428 -0.837,6.534 2.106,2.106 4.86,3.267 8.127,3.267 z"
           style="fill:#ffffff;fill-rule:evenodd"
           id="path1010" /><path
           inkscape:connector-curvature="0"
           d="m -49.09237,226.08015 c 6.561,-1.674 8.127,-4.644 4.86,-8.964 -3.699,-4.32 -7.263,-5.373 -10.449,-3.267 -2.727,1.674 -3.267,4.32 -1.674,8.127 1.566,3.267 3.996,4.644 7.263,4.104 z"
           style="fill:#ffffff;fill-rule:evenodd"
           id="path1012" /><path
           inkscape:connector-curvature="0"
           id="path48625"
           d="m 142.1728,-111.65267 c -2.50124,-3.08077 0.45486,-8.07667 -2.24725,-10.16581 0.3128,-4.5342 -2.14857,-9.42187 -0.46839,-14.06424 1.35371,-4.54194 3.55,-9.1727 7.94646,-11.80313 1.16335,-0.25968 0.80173,-1.69849 2.84306,-0.0987 1.40997,-2.09628 7.44009,2.64841 7.66359,6.20942 1.45273,3.79957 1.53188,8.20124 -1.44582,11.40227 -0.71463,3.78592 -1.33426,7.56268 -2.46437,11.09204 -1.79234,4.53987 -5.3366,6.17213 -8.2919,8.3591 -1.21829,-0.17832 -2.34394,-0.66014 -3.53538,-0.93105 z"
           style="fill:#f9f9f9;fill-opacity:1;fill-rule:evenodd;stroke:none;stroke-width:0.80000001px;stroke-linecap:butt;stroke-linejoin:miter;stroke-opacity:1" /><path
           style="fill:#f9f9f9;fill-opacity:1;fill-rule:evenodd;stroke:none;stroke-width:0.80000001px;stroke-linecap:butt;stroke-linejoin:miter;stroke-opacity:1"
           d="m -78.523024,-156.84228 c -1.750837,-2.1017 0.318395,-5.5099 -1.573045,-6.93511 0.218952,-3.09323 -1.503972,-6.4276 -0.327865,-9.59462 0.947574,-3.09851 2.48495,-6.25761 5.562406,-8.05209 0.81433,-0.17715 0.561205,-1.15871 1.990107,-0.0673 0.98696,-1.43008 5.207963,1.80674 5.364406,4.23606 1.016892,2.59207 1.072295,5.59489 -1.012051,7.77863 -0.500234,2.58275 -0.933964,5.15926 -1.725027,7.56699 -1.254616,3.0971 -3.735545,4.21062 -5.80422,5.70257 -0.852785,-0.12165 -1.640723,-0.45035 -2.474711,-0.63516 z"
           id="path48632"
           inkscape:connector-curvature="0" /><path
           inkscape:connector-curvature="0"
           id="path48634"
           d="m 279.50263,-9.0599669 c -1.21483,-1.5422311 0.22092,-4.0431751 -1.09147,-5.0889971 0.15192,-2.269818 -1.04354,-4.716585 -0.22749,-7.040551 0.65748,-2.273692 1.7242,-4.591846 3.85952,-5.908639 0.56503,-0.129993 0.3894,-0.850263 1.38085,-0.04938 0.68481,-1.049395 3.61358,1.32579 3.72214,3.108429 0.70557,1.902066 0.74401,4.105541 -0.70222,5.707974 -0.3471,1.895227 -0.64804,3.785875 -1.19693,5.552672 -0.87052,2.272658 -2.59194,3.0897609 -4.0273,4.1845567 -0.59171,-0.089267 -1.13843,-0.3304677 -1.7171,-0.4660817 z"
           style="fill:#f9f9f9;fill-opacity:1;fill-rule:evenodd;stroke:none;stroke-width:0.80000001px;stroke-linecap:butt;stroke-linejoin:miter;stroke-opacity:1" /></g></g></g><metadata
     id="metadata47847"><rdf:RDF><cc:Work><dc:format>image/svg+xml</dc:format><dc:type
           rdf:resource="http://purl.org/dc/dcmitype/StillImage" /><cc:license
           rdf:resource="http://creativecommons.org/publicdomain/zero/1.0/" /><dc:publisher><cc:Agent
             rdf:about="http://openclipart.org/"><dc:title>Openclipart</dc:title></cc:Agent></dc:publisher><dc:title></dc:title><dc:description>remix by j4p4n</dc:description></cc:Work><cc:License
         rdf:about="http://creativecommons.org/publicdomain/zero/1.0/"><cc:permits
           rdf:resource="http://creativecommons.org/ns#Reproduction" /><cc:permits
           rdf:resource="http://creativecommons.org/ns#Distribution" /><cc:permits
           rdf:resource="http://creativecommons.org/ns#DerivativeWorks" /></cc:License></rdf:RDF></metadata></svg>